<?xml version="1.0" encoding="utf-8"?>
<!-- Generator: Adobe Illustrator 27.9.0, SVG Export Plug-In . SVG Version: 6.00 Build 0)  -->
<svg version="1.1" id="Layer_1" xmlns="http://www.w3.org/2000/svg" xmlns:xlink="http://www.w3.org/1999/xlink" x="0px" y="0px"
	 viewBox="0 0 100 100" style="enable-background:new 0 0 100 100;" xml:space="preserve">
<style type="text/css">
	.st0{fill:url(#SVGID_1_);}
	.st1{fill:url(#SVGID_00000067917604871426191490000015899296728408626356_);}
	.st2{fill:url(#SVGID_00000052801604085870396500000007516570488448407986_);}
	.st3{fill:url(#SVGID_00000047055496233737093360000005795551462559564979_);}
	.st4{fill:url(#SVGID_00000008109311019573832410000015494496618848428698_);}
	.st5{fill:url(#SVGID_00000176744467246202668430000009535712982200108218_);}
</style>
<g>
	
		<linearGradient id="SVGID_1_" gradientUnits="userSpaceOnUse" x1="48.5764" y1="72.0502" x2="74.5843" y2="72.0502" gradientTransform="matrix(1 0 0 -1 0 100)">
		<stop  offset="0" style="stop-color:#FFBB5C"/>
		<stop  offset="1" style="stop-color:#FF9B50"/>
	</linearGradient>
	<path class="st0" d="M58.7,27.4c0.4,0,1.1,0,2.3,0c1.1,0,1.9,0,2.6,0s1.9,0,2.6-0.4c0.8,0,1.5-0.4,1.9-0.4c0.4-0.4,0.8-0.4,1.5-0.4
		s1.1,0.4,1.5,0.8c0.4,0.4,0.8,1.1,0.8,1.5c0,0.8-0.4,1.1-1.1,1.9c-0.8,0.4-1.5,0.8-2.3,1.1c-0.8,0.4-1.9,0.4-3.4,0.4
		c-1.1,0-2.3,0-3.4,0s-2.3,0-3,0h-0.4c0,1.9,0,3.4,0.4,5.3s0,3.4,0,4.9c0,0.8,0,1.1,0,1.5c0,0.4,0,1.1,0,1.5c0,0.8,0,1.5,0,2.3
		s0,1.1-0.4,1.5c0,0.8-0.4,1.5-0.8,2.3c-0.4,0.8-1.1,0.8-1.9,0.8c-0.4,0-0.8,0-1.5-0.4c-0.4-0.4-1.1-0.8-1.5-1.5
		c-0.8-1.1-1.1-2.6-1.9-4.9c-0.4-2.3-0.8-4.5-1.1-6.8c-0.4-2.6-0.4-4.9-0.4-7.5s0-4.5,0-6c0-1.9,0-4.1,0.4-6.4
		c0.4-2.3,0.4-4.1,1.1-6c0.4-1.9,1.5-3.4,2.3-4.9c1.1-1.5,2.3-2.3,4.1-2.6C58.3,4.4,59.8,4.4,61,4c1.1,0,2.6,0,3.8,0
		c2.3,0,4.1,0,5.7,0.4c1.9,0,3,0.4,3.4,0.4c1.1,0.4,1.9,1.1,1.9,2.3c0,0.8-0.4,1.1-0.8,1.5c-0.4,0.4-1.1,0.8-1.5,0.8
		c-0.4,0-0.4,0-0.8,0S71.1,8.9,70,8.9c-1.5,0-3,0-4.9,0c-0.4,0-1.1,0-1.9,0c-0.8,0-1.5,0-2.3,0c-0.8,0-1.5,0-2.3,0.4
		C58,9.7,57.6,9.7,56.8,10c0,0,0,0,0,0.4c0.4,3,0.8,5.7,0.8,8.7s0.4,5.7,0.8,8.7L58.7,27.4L58.7,27.4z"/>
	
		<linearGradient id="SVGID_00000009558453741735929240000010513563789020683194_" gradientUnits="userSpaceOnUse" x1="74.0943" y1="60.9309" x2="97.916" y2="60.9309" gradientTransform="matrix(1 0 0 -1 0 100)">
		<stop  offset="0" style="stop-color:#FFBB5C"/>
		<stop  offset="1" style="stop-color:#FF9B50"/>
	</linearGradient>
	<path style="fill:url(#SVGID_00000009558453741735929240000010513563789020683194_);" d="M92.3,51.9c-0.4,0-1.1,0-1.5-0.4
		c-0.4-0.4-0.8-0.8-0.8-1.1c0-0.4-0.4-0.8-0.4-1.5s0-0.8,0-1.5c-0.8,1.1-1.5,1.9-2.3,3c-1.1,0.8-2.3,1.1-3.4,1.1
		c-1.9,0-3.4-0.4-4.5-1.5c-1.1-0.8-2.3-2.3-3-3.8c-0.8-1.5-1.1-3-1.5-4.5c-0.4-1.9-0.4-3.4-0.4-4.5c0-0.8,0-1.9,0-3
		c0-1.1,0.4-2.3,0.8-3.4c0.4-1.1,1.1-2.3,1.9-3c0.8-0.8,1.5-1.1,3-1.1c1.1,0,1.9,0.4,2.3,1.1c0.4,0.8,0.8,1.9,1.1,3
		c0,1.1,0.4,2.3,0.4,3.4c0,1.1,0,2.3,0,3c0,0.8,0,1.5,0,2.6s0,2.3,0,3.4s0,1.9,0,2.6c0,0.8,0.4,1.1,0.8,1.1c0.4,0,1.1-0.4,1.5-1.1
		c0.4-0.8,0.8-1.5,1.5-2.6c0.4-1.1,0.8-2.3,1.1-3.8c0.4-1.5,0.8-2.6,0.8-4.1c0-1.5,0.4-2.6,0.8-3.8c0-1.1,0.4-1.9,0.4-2.6
		s0.4-1.5,0.8-1.9c0.4-0.8,1.1-0.8,1.9-0.8c1.1,0,2.3,0.4,2.6,1.1c0.8,0.8,1.1,1.9,1.5,3c0.4,1.1,0.4,2.3,0.8,3.4c0,1.1,0,2.3,0,3
		s0,2.3,0,3.8s-0.4,3-0.8,4.9s-0.8,3-1.9,4.1C94.5,51.1,93.4,51.9,92.3,51.9z"/>
	
		<linearGradient id="SVGID_00000096023480601148859980000004697039343271858086_" gradientUnits="userSpaceOnUse" x1="1.5444" y1="43.4038" x2="36.1839" y2="43.4038" gradientTransform="matrix(1 0 0 -1 0 100)">
		<stop  offset="0" style="stop-color:#FFBB5C"/>
		<stop  offset="1" style="stop-color:#FF9B50"/>
	</linearGradient>
	<path style="fill:url(#SVGID_00000096023480601148859980000004697039343271858086_);" d="M36.2,66.6c0,2.3-0.4,4.1-1.5,5.7
		c-1.1,1.5-2.3,3-3.8,3.8c-1.5,0.8-3,1.9-4.9,2.3c-1.9,0.4-3.4,0.8-5.3,0.8s-3.8-0.4-5.7-0.8c-1.9-0.8-3.4-1.5-4.9-2.6
		c0,0.4,0,1.1-0.4,1.9c0,0.8-0.4,1.1-0.4,1.9c0,0.8-0.4,1.1-0.8,1.5c-0.4,0.4-1.1,0.8-1.9,0.8c-0.4,0-0.8,0-1.1-0.4
		c-0.4-0.4-1.1-0.8-1.5-1.1c-0.4-0.8-0.8-1.5-0.8-2.6C3,76.4,3,74.9,2.6,73.7c0-1.5-0.4-3-0.4-4.5s0-3-0.4-4.5c-0.4-1.5,0-2.6,0-3.8
		c0-1.1,0-2.3,0-3c0-1.5,0-3,0-5.3c0-1.9,0-4.1,0.4-6c0-1.9,0.4-4.1,0.8-6s0.8-3.8,1.1-4.9c0.4-0.8,0.8-1.9,1.1-2.6
		c0.4-0.8,1.5-1.1,2.3-1.1c1.1,0,1.5,0.4,1.9,1.1c0.4,0.8,0.4,1.5,0.8,2.3v0.4v0.4c1.5-1.5,3.4-2.6,5.3-3.4c1.9-0.8,4.1-1.1,6.4-1.1
		c1.5,0,3,0.4,4.5,0.8c1.5,0.4,3,1.1,4.1,2.3s2.3,2.3,3,3.4c0.8,1.5,1.1,3,1.1,4.9c0,1.5-0.4,3-0.8,4.5c-0.8,1.5-1.5,2.6-2.6,3.8
		c-1.1,1.1-2.3,2.3-3.4,3.4c-1.1,1.1-2.6,1.9-4.1,2.6c1.9,0,3.4,0,4.9,0.4c1.5,0.4,3,0.8,4.1,1.5c1.1,0.8,2.3,1.9,3,3
		C35.8,63.2,36.2,64.7,36.2,66.6z M10.5,42.8c0,2.6,0,5.3,0.4,7.5c0,2.6,0,5.3,0,7.5c0,1.9,0,3.8,0,5.7s0,3.8,0,5.7
		c1.1,1.5,2.6,2.6,4.5,3.4s3.8,1.1,5.7,1.1c4.5,0,6.4-2.6,6.4-7.5c0-1.9-0.4-3.4-1.1-4.1c-0.8-0.8-2.3-1.1-4.1-1.1
		c-1.1,0-2.3,0-3.4,0.4c-1.1,0-2.3,0.4-3.4,0.4c-0.8,0-1.5,0-1.9-0.4c-0.4-0.4-0.8-0.8-0.8-1.9c0-0.8,0-1.5,0.4-1.9
		c0.4-0.4,0.8-0.8,1.1-1.1c1.5-1.1,3-2.3,4.5-3.4c1.5-0.8,2.6-1.9,3.8-3c1.1-1.1,1.9-2.3,2.6-3.8c0.8-1.5,0.8-3.4,0.8-6
		c0-0.4,0-0.8,0-1.1c0-0.4,0-1.1-0.4-1.5c-0.4-0.4-0.8-0.8-1.1-1.1c-0.4-0.4-1.5-0.4-2.3-0.4c-1.1,0-1.9,0-3,0.4
		c-1.1,0.4-2.3,0.8-3,1.5c-0.8,0.8-1.9,1.1-2.6,1.9c-0.8,0.8-1.5,1.5-1.9,2.6C10.5,42.8,10.5,42.8,10.5,42.8z"/>
	
		<linearGradient id="SVGID_00000137819729666167264660000003262641706759971467_" gradientUnits="userSpaceOnUse" x1="38.1816" y1="44.9115" x2="46.9263" y2="44.9115" gradientTransform="matrix(1 0 0 -1 0 100)">
		<stop  offset="0" style="stop-color:#FFBB5C"/>
		<stop  offset="1" style="stop-color:#FF9B50"/>
	</linearGradient>
	<path style="fill:url(#SVGID_00000137819729666167264660000003262641706759971467_);" d="M38.1,59c0-1.9,0-3.8,0-5.7s0-4.1,0.4-6.4
		c0.4-2.3,0.4-4.1,0.8-6c0.4-1.9,0.8-3.8,1.1-5.7c0.4-0.8,0.8-1.9,1.1-2.6c0.4-0.8,1.5-1.5,2.6-1.5s1.5,0.4,1.9,1.1
		c0.4,0.8,0.4,1.5,0.8,2.3c0.4,3,0.4,5.7,0.4,8.7c0,3,0,5.7,0,8.7c0,3.4,0,7.2,0,11.3c0,3.8-0.4,7.5-0.8,10.9c0,0.4,0,0.8-0.4,1.5
		c0,0.4-0.4,0.8-0.4,1.5c0,0.8-0.4,0.8-0.8,1.1c-0.4,0.4-1.1,0.8-1.5,0.8c-0.8,0-1.1,0-1.9-0.8c-0.8-0.4-1.1-1.1-1.5-2.3
		c-0.4-1.1-0.8-2.3-0.8-3.8c-0.4-1.5-0.4-3-0.4-4.5s0-3,0-4.5C38.1,61.7,38.1,60.2,38.1,59z"/>
	
		<linearGradient id="SVGID_00000152237947843573460050000002798806873233198239_" gradientUnits="userSpaceOnUse" x1="49.3009" y1="33.6037" x2="71.2381" y2="33.6037" gradientTransform="matrix(1 0 0 -1 0 100)">
		<stop  offset="0" style="stop-color:#FFBB5C"/>
		<stop  offset="1" style="stop-color:#FF9B50"/>
	</linearGradient>
	<path style="fill:url(#SVGID_00000152237947843573460050000002798806873233198239_);" d="M61.1,53.8c0.8,0,1.1,0,1.5,0.4
		c0.4,0.4,0.8,0.8,0.8,0.8h0.8c1.5,0,2.6,0.4,3.4,1.1c0.8,0.8,1.9,1.5,2.3,2.6c0.8,1.1,1.1,2.3,1.1,3.4c0.4,1.1,0.4,2.6,0.4,3.8
		c0,1.5,0,3-0.4,4.5s-0.8,3-1.9,4.1s-1.9,2.3-3.4,3c-1.5,0.8-3,1.5-4.9,1.5c-1.5,0-3-0.4-4.5-0.8c-1.5-0.8-2.6-1.5-3.8-2.3
		c-1.1-1.1-1.9-2.3-2.6-3.8c-0.8-1.5-0.8-3-0.8-4.9c0-1.9,0.4-3.4,0.8-4.9c0.8-1.5,1.5-3,2.3-4.1c1.1-1.1,2.3-2.3,3.8-3
		C57.7,54.1,59.2,53.8,61.1,53.8z M63.3,59.8c-1.1,0-1.9-0.4-2.3-1.5c-0.4,0-0.8,0.4-1.5,1.1c-0.4,0.8-0.8,1.9-0.8,2.6
		c0,0.8-0.4,1.9-0.4,3c0,1.1,0,1.5,0,1.9c0,0,0,0.8,0,1.5c0,0.8,0,1.5,0.4,2.6c0.4,0.8,0.8,1.5,1.1,2.3c0.4,0.8,1.1,1.1,2.3,1.1
		c0.8,0,1.5-0.4,2.3-0.8c0.8-0.8,1.1-1.5,1.5-2.3c0.4-0.8,0.8-1.9,0.8-2.6c0-1.1,0.4-1.9,0.4-2.6c0-0.4,0-1.1,0-1.9
		c0-0.8-0.4-1.5-0.4-1.9c-0.4-0.8-0.8-1.1-0.8-1.5C66,60.6,64.1,59.8,63.3,59.8z"/>
	
		<linearGradient id="SVGID_00000075147025114591471110000017862166548437006762_" gradientUnits="userSpaceOnUse" x1="72.8965" y1="28.3268" x2="97.2083" y2="28.3268" gradientTransform="matrix(1 0 0 -1 0 100)">
		<stop  offset="0" style="stop-color:#FFBB5C"/>
		<stop  offset="1" style="stop-color:#FF9B50"/>
	</linearGradient>
	<path style="fill:url(#SVGID_00000075147025114591471110000017862166548437006762_);" d="M85.2,96c-3,0-5.3-0.8-7.2-2.6
		c-1.9-1.9-2.6-3.8-2.6-6.8c0-0.8,0.4-1.1,0.8-1.5c0.4-0.4,1.1-0.8,1.5-0.8c0.8,0,1.1,0.4,1.5,0.8c0.4,0.4,0.8,1.1,0.8,1.5
		c0,1.5,0.4,2.6,1.1,3.4c0.8,0.8,1.9,1.1,3,1.1c0.4,0,0.8,0,1.1,0c0.4,0,0.8-0.4,1.1-0.8c0.4-0.4,0.8-0.8,0.8-1.5
		c0.4-0.8,0.4-1.5,0.4-2.6c0-1.9-0.4-3.4-1.5-4.1c-1.1-0.8-2.3-1.1-4.1-1.1h-1.5c-0.8,0-1.1,0-1.9-0.8s0-0.4,0-1.1s0.4-1.1,1.1-1.9
		c0,0,0.4,0,0.8-0.4c0.4-0.4,0.8-0.8,1.5-1.1c-2.6-0.8-4.5-1.9-6.4-3.4c-1.9-1.5-2.6-4.1-2.6-6.8c0-1.5,0.4-3,0.8-4.5
		c0.4-1.5,1.5-2.6,2.6-3.8c1.1-1.1,2.3-1.9,3.8-2.6c1.5-0.8,3-0.8,4.5-0.8c0.8,0,1.5,0,1.9-0.4c0.8-0.4,1.1-0.8,1.9-1.1
		c0.4-0.4,0.8-0.8,1.1-1.5c0.4-0.4,0.4-0.8,0.4-1.1c0-0.8,0.4-1.1,0.8-1.5c0.4-0.4,1.1-0.8,1.5-0.8c0.8,0,1.1,0.4,1.5,0.8
		c0.4,0.4,0.8,1.1,0.8,1.5c0,0.8,0,1.5-0.8,2.3c-0.4,1.1-1.1,2.6-2.6,4.5c1.1,1.1,2.3,2.3,2.6,3.8c0.4,1.5,0.8,3,0.8,4.5
		c0,1.5,0,3-0.4,4.1s-0.8,2.3-1.5,3.4c-0.8,1.1-1.5,1.9-2.3,2.6c-0.8,0.8-1.9,1.5-3,2.6c1.1,0.4,2.6,0.8,3.8,1.1
		c1.1,0.4,2.3,0.8,3,1.5s1.5,1.5,2.3,2.6c0.4,1.1,0.8,2.3,0.8,3.8c0,1.9-0.4,3.4-1.1,4.5c-0.8,1.1-1.9,2.3-3,3
		c-1.1,0.8-2.6,1.5-3.8,1.9C87.8,96,86.7,96,85.2,96z M81.8,65.5c0,0.4,0,0.8,0,1.5c0,0.8,0,1.1,0.4,1.9c0.4,0.8,0.8,1.1,1.1,1.9
		c0.4,0.8,1.1,0.8,1.9,0.8c0.8,0,1.5-0.4,2.3-0.8c0.8-0.4,1.1-1.1,1.5-1.5c0.4-0.4,0.8-1.5,0.8-2.3c0-0.8,0.4-1.5,0.4-2.3
		c0-0.4,0-0.8,0-1.1c0-0.4,0-0.8-0.4-1.5c0-0.4-0.4-0.8-0.8-1.1c-0.4-0.4-0.8-0.8-0.8-0.8c-0.4,0-0.8,0-1.5,0s-1.1,0-1.5-0.8
		c-0.4-0.4-0.8-0.8-0.8-1.5c-0.8,0-1.1,0.8-1.9,2.3C82.2,62.1,81.8,63.6,81.8,65.5z"/>
</g>
</svg>
